<?xml version="1.0" encoding="iso-8859-1"?>
<!-- Generator: Adobe Illustrator 21.1.0, SVG Export Plug-In . SVG Version: 6.00 Build 0)  -->
<svg version="1.1" id="Calque_1" xmlns="http://www.w3.org/2000/svg" xmlns:xlink="http://www.w3.org/1999/xlink" x="0px" y="0px"
	 width="432px" height="432px" viewBox="0 0 432 432" enable-background="new 0 0 432 432" xml:space="preserve">
<g>
	<g>
		<g>
			<path fill="#8C6239" d="M318.185,84.068v113.545c0,0.531-0.431,0.955-0.955,0.955H114.77c-0.531,0-0.955-0.425-0.955-0.955
				V84.068c0-0.524,0.425-0.956,0.955-0.956h202.46C317.754,83.113,318.185,83.544,318.185,84.068z"/>
			<path fill="#B3B3B3" d="M317.23,83.113h-12.302v-3.779c0-0.69-0.166-1.347-0.464-1.924c-0.703-1.393-2.15-2.356-3.809-2.356
				h-28.36c-1.665,0-3.112,0.962-3.815,2.356c-0.299,0.577-0.464,1.234-0.464,1.924v3.779h-80.328v-7.103
				c0-0.524-0.431-0.955-0.955-0.955h-57.974c-0.524,0-0.955,0.431-0.955,0.955v7.103H114.77c-0.531,0-0.955,0.431-0.955,0.956
				v23.41h204.371v-23.41C318.185,83.544,317.754,83.113,317.23,83.113z"/>
			<path fill="#B3B3B3" d="M318.185,189.558v7.541c0,0.816-0.431,1.469-0.955,1.469H114.77c-0.531,0-0.955-0.653-0.955-1.469v-7.541
				H318.185z"/>
		</g>
		<g>
			<g>
				<path fill="#B3B3B3" d="M218.419,106.401c-23.695,0-42.964,19.276-42.964,42.964c0,23.688,19.269,42.964,42.964,42.964
					c23.688,0,42.964-19.276,42.964-42.964C261.383,125.677,242.108,106.401,218.419,106.401z"/>
				<circle cx="218.419" cy="149.115" r="38.145"/>
				<circle fill="#333333" cx="218.419" cy="149.115" r="27.537"/>
			</g>
			<g>
				<polygon points="205.463,103.795 220.725,87.87 255.976,87.87 255.976,103.795 				"/>
				<rect x="264.409" y="87.87" width="44.126" height="15.925"/>
			</g>
			<g>
				<circle fill="#B3B3B3" cx="270.683" cy="130.928" r="4.396"/>
				<path fill="#B3B3B3" d="M171.234,125.775h-24.906c-0.792,0-1.44-0.648-1.44-1.44v-2.014c0-0.792,0.648-1.44,1.44-1.44h24.906
					c0.792,0,1.44,0.648,1.44,1.44v2.014C172.674,125.127,172.026,125.775,171.234,125.775z"/>
			</g>
		</g>
	</g>
	<g>
		<g>
			<path d="M318.185,254.55v101.541c0,0.475-0.431,0.854-0.955,0.854H114.77c-0.531,0-0.955-0.38-0.955-0.854V254.55
				c0-0.469,0.425-0.854,0.955-0.854h202.46C317.754,253.696,318.185,254.082,318.185,254.55z"/>
			<path fill="#B3B3B3" d="M318.19,242.443v23.41H113.81v-23.41c0-0.52,0.43-0.95,0.96-0.95h13.03v-7.11c0-0.52,0.43-0.95,0.96-0.95
				h39.19c0.52,0,0.95,0.43,0.95,0.95v7.11h99.12v-3.78c0-0.69,0.16-1.35,0.46-1.93c0.7-1.39,2.15-2.35,3.81-2.35h28.36
				c1.66,0,3.11,0.96,3.81,2.35c0.3,0.58,0.47,1.24,0.47,1.93v3.78h12.3C317.75,241.493,318.19,241.923,318.19,242.443z"/>
			<path fill="#B3B3B3" d="M318.185,351.34v4.692c0,0.508-0.431,0.914-0.955,0.914H114.77c-0.531,0-0.955-0.406-0.955-0.914v-4.692
				H318.185z"/>
		</g>
		<g>
			<circle cx="270.683" cy="254.776" r="4.396"/>
		</g>
		<path fill="#999999" d="M248.55,241.663v46.38h-60.26v-35.7c0-6.45,0-10.68,0-10.68l21.36-22.31h18.64L248.55,241.663z"/>
		<g>
			<circle fill="#333333" cx="218.422" cy="310.017" r="44.164"/>
			<circle cx="218.422" cy="310.017" r="31.882"/>
		</g>
		<g>
			<rect x="127.8" y="238.293" width="41.1" height="3.2"/>
			<rect x="188.29" y="252.343" width="60.26" height="4.33"/>
		</g>
	</g>
</g>
</svg>
